<?xml version="1.0" encoding="UTF-8" standalone="no"?>
<svg
   version="1.0"
   width="320.000000pt"
   height="318.000000pt"
   viewBox="0 0 320.000000 318.000000"
   preserveAspectRatio="xMidYMid meet"
   id="svg6"
   sodipodi:docname="CoolKeyLogo.svg"
   inkscape:version="1.4.2 (f4327f4, 2025-05-13)"
   xmlns:inkscape="http://www.inkscape.org/namespaces/inkscape"
   xmlns:sodipodi="http://sodipodi.sourceforge.net/DTD/sodipodi-0.dtd"
   xmlns="http://www.w3.org/2000/svg"
   xmlns:svg="http://www.w3.org/2000/svg">
  <defs
     id="defs6" />
  <sodipodi:namedview
     id="namedview6"
     pagecolor="#ffffff"
     bordercolor="#000000"
     borderopacity="0.25"
     inkscape:showpageshadow="2"
     inkscape:pageopacity="0.0"
     inkscape:pagecheckerboard="0"
     inkscape:deskcolor="#d1d1d1"
     inkscape:document-units="pt"
     inkscape:zoom="1.1674528"
     inkscape:cx="213.71314"
     inkscape:cy="226.56162"
     inkscape:window-width="1366"
     inkscape:window-height="697"
     inkscape:window-x="1912"
     inkscape:window-y="-8"
     inkscape:window-maximized="1"
     inkscape:current-layer="svg6" />
  <rect
     style="fill:#ffffff;stroke-width:0.75;fill-opacity:1"
     id="rect6"
     width="320.5697"
     height="318.64243"
     x="0"
     y="0" />
  <g
     transform="translate(0.000000,318.000000) scale(0.100000,-0.100000)"
     fill="#000000"
     stroke="none"
     id="g6">
    <path
       d="M637 2836 c-115 -47 -183 -112 -234 -222 -25 -53 -28 -70 -28 -164 0 -96 3 -110 29 -165 36 -74 124 -163 191 -194 40 -19 51 -21 57 -10 146 253 248 366 435 481 l72 45 -29 50 c-30 53 -113 134 -164 160 -94 49 -237 57 -329 19z"
       id="path1" />
    <path
       d="M2295 2847 c-66 -22 -118 -53 -164 -98 -40 -39 -101 -123 -101 -140 0 -5 28 -25 63 -45 164 -96 300 -237 406 -421 l42 -73 36 15 c80 34 161 114 206 205 29 59 32 72 32 160 -1 133 -24 190 -119 285 -55 56 -85 77 -131 95 -73 28 -210 36 -270 17z"
       id="path2" />
    <path
       d="M1051 1838 c-110 -42 -244 -208 -266 -331 -25 -133 66 -237 206 -237 73 0 139 29 175 75 12 17 29 62 37 100 9 40 32 101 53 140 62 113 51 193 -36 253 -42 28 -97 28 -169 0z"
       id="path3" />
    <path
       d="M1962 1840 c-48 -29 -72 -75 -72 -138 0 -43 8 -68 45 -138 26 -48 45 -98 45 -116 0 -48 36 -113 80 -143 80 -55 229 -44 293 23 67 70 71 161 12 280 -93 184 -292 299 -403 232z"
       id="path4" />
    <path
       d="M1492 1610 c-41 -10 -82 -47 -82 -74 0 -40 37 -83 94 -111 67 -33 124 -30 190 9 147 86 90 188 -104 185 -36 -1 -80 -5 -98 -9z"
       id="path5" />
    <path
       d="M2475 1219 c-113 -116 -332 -243 -507 -293 -103 -30 -282 -56 -376 -56 -85 0 -248 23 -350 50 -182 46 -361 144 -498 273 l-66 61 -21 -24 c-32 -39 -93 -177 -122 -275 -66 -224 -32 -462 88 -622 l32 -42 298 -1 c323 0 326 0 379 57 48 51 62 130 35 196 -16 37 -80 98 -129 123 -37 18 -68 43 -68 54 0 4 19 15 43 23 190 72 421 61 599 -29 l70 -35 -44 -28 c-55 -36 -83 -67 -103 -113 -32 -78 -6 -166 66 -217 l42 -31 343 0 344 0 31 43 c68 92 111 214 124 348 15 148 -46 378 -142 532 l-29 47 -39 -41z"
       id="path6" />
  </g>
</svg>
