<?xml version="1.0" standalone="no"?>
<!DOCTYPE svg PUBLIC "-//W3C//DTD SVG 20010904//EN"
 "http://www.w3.org/TR/2001/REC-SVG-20010904/DTD/svg10.dtd">
<svg version="1.0" xmlns="http://www.w3.org/2000/svg"
 width="445.000000pt" height="132.000000pt" viewBox="0 0 445.000000 132.000000"
 preserveAspectRatio="xMidYMid meet">

<g transform="translate(0.000000,132.000000) scale(0.100000,-0.100000)"
fill="#000000" stroke="none">
<path d="M150 1294 c-79 -34 -123 -101 -123 -184 0 -76 38 -141 104 -176 26
-13 27 -12 68 50 43 67 133 156 182 182 35 18 36 28 4 70 -50 65 -157 92 -235
58z"/>
<path d="M965 1296 c-30 -13 -105 -88 -105 -105 0 -5 19 -20 43 -34 53 -31
145 -127 181 -189 15 -27 31 -48 35 -48 5 0 26 13 48 29 72 52 102 155 69 235
-41 98 -175 154 -271 112z"/>
<path d="M1522 1016 c-108 -35 -172 -119 -172 -226 0 -107 35 -173 115 -217
43 -24 61 -28 130 -27 114 0 175 37 175 107 0 68 -40 95 -96 67 -78 -40 -141
-17 -151 56 -4 33 -1 45 20 70 24 27 29 29 94 27 75 -3 96 7 113 52 16 41 5
61 -44 79 -62 24 -134 28 -184 12z"/>
<path d="M1961 1019 c-209 -41 -248 -351 -58 -452 63 -32 175 -31 242 4 73 37
109 99 113 195 4 61 0 81 -21 127 -46 101 -154 151 -276 126z m103 -181 c24
-33 20 -93 -6 -118 -28 -26 -46 -25 -75 2 -46 43 -21 138 37 138 18 0 34 -8
44 -22z"/>
<path d="M2461 1019 c-125 -25 -200 -153 -171 -292 6 -31 21 -71 33 -89 63
-93 200 -123 321 -70 136 61 165 285 49 394 -53 51 -148 74 -232 57z m101
-176 c25 -29 30 -59 14 -96 -17 -42 -48 -55 -81 -33 -29 19 -39 48 -31 92 10
52 66 73 98 37z"/>
<path d="M3252 1023 c-12 -2 -30 -16 -39 -29 -14 -22 -15 -49 -10 -197 3 -101
10 -183 17 -198 29 -63 165 -68 153 -6 -3 14 3 39 12 58 l18 33 28 -56 c32
-63 60 -88 100 -88 31 0 89 44 89 67 0 8 -20 51 -45 95 -25 44 -45 85 -45 92
0 6 14 31 30 55 17 25 33 55 36 68 14 54 -18 96 -83 109 -30 6 -33 4 -72 -67
-68 -125 -70 -126 -71 -42 0 64 -3 74 -22 87 -28 18 -65 25 -96 19z"/>
<path d="M4086 1019 c-32 -9 -66 -36 -66 -54 0 -7 29 -72 65 -144 50 -102 65
-142 65 -176 0 -63 32 -98 91 -99 73 -1 79 4 79 79 0 60 5 75 60 185 33 66 60
129 60 140 0 34 -44 70 -85 70 -34 0 -38 -3 -57 -47 -11 -27 -29 -68 -40 -93
l-21 -45 -16 40 c-31 79 -66 139 -86 145 -11 4 -33 3 -49 -1z"/>
<path d="M2819 1001 c-24 -19 -24 -23 -23 -183 0 -178 6 -204 57 -242 23 -17
46 -21 135 -24 93 -3 111 -1 139 17 39 25 62 86 44 120 -11 19 -20 21 -106 21
l-93 0 -4 126 -3 126 -33 29 c-38 34 -79 38 -113 10z"/>
<path d="M3660 1010 c-11 -7 -15 -43 -18 -174 -5 -190 0 -229 33 -262 22 -22
32 -24 130 -24 148 0 183 21 173 106 l-3 29 -82 3 c-61 2 -83 6 -83 16 0 9 18
15 55 18 67 6 95 28 95 74 0 42 -21 54 -94 54 -77 0 -71 16 9 23 80 8 100 18
114 58 16 46 5 76 -31 83 -48 9 -281 7 -298 -4z"/>
<path d="M352 789 c-47 -23 -83 -64 -107 -122 -22 -54 -19 -85 14 -118 24 -24
38 -29 76 -29 38 0 52 5 76 29 16 16 29 38 29 49 0 11 11 44 25 74 21 47 23
59 14 87 -19 55 -58 64 -127 30z"/>
<path d="M810 790 c-26 -26 -26 -82 -1 -124 10 -17 22 -48 25 -68 9 -52 46
-78 108 -78 39 0 54 5 73 25 77 76 -38 265 -161 265 -13 0 -33 -9 -44 -20z"/>
<path d="M573 680 c-15 -6 -23 -18 -23 -34 0 -47 78 -78 129 -52 74 39 52 97
-36 95 -27 0 -58 -4 -70 -9z"/>
<path d="M1055 470 c-48 -49 -168 -112 -255 -135 -84 -22 -234 -22 -324 -1
-82 20 -190 74 -250 127 -24 22 -47 39 -50 39 -11 0 -63 -116 -76 -169 -19
-81 -9 -177 26 -242 l29 -54 162 -3 c151 -2 164 -1 182 17 49 49 34 117 -35
157 -24 14 -44 29 -44 33 0 12 78 33 141 38 58 6 153 -15 197 -43 l22 -15 -34
-30 c-19 -16 -37 -43 -41 -59 -7 -32 15 -84 40 -94 9 -3 94 -6 189 -6 197 0
192 -2 227 89 37 99 20 251 -42 355 -11 20 -22 36 -23 36 -1 0 -19 -18 -41
-40z"/>
<path d="M2418 429 c-13 -7 -15 -27 -14 -111 1 -69 6 -103 14 -106 8 -2 12 9
13 35 0 33 2 36 12 19 42 -65 74 -77 42 -16 -15 29 -15 35 -1 65 29 60 -18
141 -66 114z m52 -68 c0 -24 -16 -44 -29 -37 -12 8 -15 69 -4 80 9 9 33 -23
33 -43z"/>
<path d="M3638 433 c-16 -4 -18 -18 -18 -114 0 -90 3 -109 15 -109 11 0 15 11
15 38 l1 37 20 -37 c11 -21 26 -38 34 -38 19 0 19 3 -4 41 -18 29 -18 33 -3
59 30 52 -10 135 -60 123z m38 -47 c8 -32 2 -58 -13 -64 -9 -2 -13 10 -13 42
0 49 16 62 26 22z"/>
<path d="M1790 320 l0 -110 41 0 c43 0 52 22 11 28 -21 3 -22 9 -22 98 0 77
-3 94 -15 94 -12 0 -15 -19 -15 -110z"/>
<path d="M1910 320 l0 -110 41 0 c45 0 51 20 8 30 -24 6 -24 8 -21 98 3 79 1
92 -12 92 -14 0 -16 -16 -16 -110z"/>
<path d="M2050 408 c0 -13 -7 -60 -16 -106 -18 -90 -13 -110 17 -72 l19 25 19
-25 c11 -14 22 -22 26 -19 3 3 -3 53 -13 110 -14 80 -22 105 -35 107 -12 3
-17 -3 -17 -20z m30 -103 c0 -19 -4 -35 -10 -35 -5 0 -10 16 -10 35 0 19 5 35
10 35 6 0 10 -16 10 -35z"/>
<path d="M2143 398 c3 -18 11 -68 18 -111 11 -71 14 -78 33 -75 18 3 23 14 33
83 7 44 14 92 17 108 4 19 1 27 -9 27 -16 0 -21 -14 -31 -90 -6 -46 -8 -51
-15 -30 -4 14 -10 46 -14 73 -4 33 -11 47 -22 47 -12 0 -14 -7 -10 -32z"/>
<path d="M2280 320 l0 -110 41 0 c43 0 52 22 11 28 -30 5 -30 47 -1 55 23 6
17 27 -7 27 -10 0 -14 12 -14 39 0 33 4 40 25 45 39 10 29 26 -15 26 l-40 0 0
-110z"/>
<path d="M2543 393 c-19 -47 -12 -136 13 -164 43 -48 87 -2 87 91 0 70 -21
110 -59 110 -19 0 -28 -8 -41 -37z m67 -9 c20 -53 5 -144 -24 -144 -17 0 -26
30 -26 88 0 73 31 108 50 56z"/>
<path d="M2690 411 c-23 -43 -1 -119 40 -141 11 -6 20 -15 20 -20 0 -14 -34
-12 -48 2 -16 16 -29 1 -16 -20 13 -21 60 -28 80 -11 23 19 16 47 -21 80 -36
33 -45 69 -25 99 9 13 11 13 20 0 5 -8 10 -30 10 -47 0 -18 4 -33 9 -33 15 0
23 54 12 83 -8 21 -17 27 -40 27 -20 0 -34 -7 -41 -19z"/>
<path d="M2900 425 c0 -2 11 -34 25 -71 14 -36 25 -84 25 -105 0 -28 4 -39 15
-39 11 0 15 12 15 45 0 25 11 73 25 107 29 72 29 68 11 68 -7 0 -21 -21 -31
-46 -19 -50 -26 -48 -45 9 -6 20 -18 37 -26 37 -8 0 -14 -2 -14 -5z"/>
<path d="M3147 423 c-10 -18 0 -207 11 -211 8 -2 12 10 12 36 0 33 4 41 23 46
l22 7 -22 16 c-16 11 -23 26 -23 48 0 29 4 34 30 40 17 4 30 11 30 16 0 11
-77 12 -83 2z"/>
<path d="M3267 423 c-2 -5 -4 -53 -3 -107 1 -69 5 -101 14 -104 9 -3 12 24 12
107 0 97 -8 131 -23 104z"/>
<path d="M3354 404 c-24 -35 -24 -132 -1 -167 33 -50 76 -29 80 39 2 36 0 39
-25 42 -20 2 -28 -1 -28 -12 0 -9 7 -16 16 -16 21 0 14 -44 -8 -48 -13 -2 -18
7 -24 44 -12 84 25 165 43 95 9 -33 26 -42 31 -16 5 24 -26 65 -48 65 -11 0
-27 -12 -36 -26z"/>
<path d="M3480 332 c0 -104 7 -122 46 -122 40 0 54 35 54 132 0 71 -3 88 -15
88 -11 0 -15 -19 -17 -92 -2 -75 -6 -93 -18 -93 -12 0 -16 18 -18 93 -2 73 -6
92 -17 92 -12 0 -15 -19 -15 -98z"/>
<path d="M3764 320 c-11 -60 -16 -110 -11 -110 5 0 17 10 26 22 18 22 41 18
41 -8 0 -8 7 -14 15 -14 18 0 18 -6 1 77 -8 37 -17 85 -20 106 -12 69 -31 43
-52 -73z m45 -28 c1 -13 -4 -22 -10 -20 -6 2 -10 7 -10 11 1 4 1 22 2 40 0 27
2 29 9 12 5 -11 9 -30 9 -43z"/>
<path d="M3892 405 c-20 -43 -14 -73 23 -114 19 -21 35 -41 35 -45 0 -11 -35
-7 -48 6 -17 17 -25 3 -12 -21 12 -24 58 -29 78 -9 21 21 13 48 -23 82 -37 35
-46 75 -22 95 19 15 27 4 27 -41 0 -27 4 -38 13 -36 16 6 21 62 7 88 -16 30
-64 27 -78 -5z"/>
</g>
</svg>
